# AST/ASF file generated using VICON BodyLanguage
# -----------------------------------------------
:version 1.10
:name VICON
:units
  mass 1.0
  length 0.45
  angle deg
:documentation
   .ast/.asf automatically generated from VICON data using
   VICON BodyBuilder and BodyLanguage model FoxedUp or BRILLIANT.MOD
:root
   order TX TY TZ RX RY RZ
   axis XYZ
   position 0 0 0  
   orientation 0 0 0 
:bonedata
  begin
     id 1 
     name lhipjoint
     direction 0.535335 -0.74333 0.401095 
     length 2.04549 
     axis 0 0 0  XYZ
  end
  begin
     id 2 
     name lfemur
     direction 0.34202 -0.939693 0  
     length 6.95643  
     axis 0 0 20  XYZ
    dof rx ry rz
    limits (-160.0 20.0)
           (-70.0 70.0)
           (-60.0 70.0)
  end
  begin
     id 3 
     name ltibia
     direction 0.34192 -0.939729 0   
     length 5.55969   
     axis 0 0 20   XYZ
    dof rx
    limits (-10.0 170.0)
  end
  begin
     id 4 
     name lfoot
     direction 0.216943 -0.596046 0.773088   
     length 2.27918   
     axis -90 7.62852e-016 20   XYZ
    dof rx rz
    limits (-45.0 90.0)
           (-70.0 20.0)
  end
  begin
     id 5 
     name ltoes
     direction 1.53519e-011 -4.21748e-011 1   
     length 1.05562   
     axis -90 7.62852e-016 20   XYZ
    dof rx
    limits (-90.0 20.0)
  end
  begin
     id 6 
     name rhipjoint
     direction -0.576368 -0.719173 0.38806   
     length 2.1142  
     axis 0 0 0  XYZ 
  end
  begin
     id 7 
     name rfemur
     direction -0.34202 -0.939693 0   
     length 7.07928   
     axis 0 0 -20   XYZ
    dof rx ry rz
    limits (-160.0 20.0)
           (-70.0 70.0)
           (-70.0 60.0)
  end
  begin
     id 8 
     name rtibia
     direction -0.34202 -0.939693 0   
     length 5.79974   
     axis 0 0 -20   XYZ
    dof rx
    limits (-10.0 170.0)
 end
 begin
     id 9 
     name rfoot
     direction -0.189288 -0.520065 0.832888   
     length 2.42173  
     axis -90 -7.62852e-016 -20   XYZ
    dof rx rz
    limits (-45.0 90.0)
           (-20.0 70.0)
  end
  begin
     id 10 
     name rtoes
     direction -1.53574e-011 -4.21658e-011 1   
     length 1.14469   
     axis -90 -7.62852e-016 -20   XYZ
    dof rx
    limits (-90.0 20.0)
  end
  begin
     id 11 
     name lowerback
     direction -0.00135702 0.993803 0.111144   
     length 1.91308   
     axis 0 0 0   XYZ
    dof rx ry rz
    limits (-20.0 45.0)
           (-30.0 30.0)
           (-30.0 30.0)
  end
  begin
     id 12 
     name upperback
     direction -0.0056745 0.999813 0.0184631   
     length 1.9212   
     axis 0 0 0   XYZ
    dof rx ry rz
    limits (-20.0 45.0)
           (-30.0 30.0)
           (-30.0 30.0)
  end
  begin
     id 13 
     name thorax
     direction -0.00733434 0.999426 -0.0330788   
     length 1.94196   
     axis 0 0 0   XYZ
    dof rx ry rz
    limits (-20.0 45.0)
           (-30.0 30.0)
           (-30.0 30.0)
  end
  begin
     id 14 
     name lowerneck
     direction 0.0563074 0.996944 -0.0541571   
     length 2.34257   
     axis 0 0 0   XYZ
    dof rx ry rz
    limits (-20.0 45.0)
           (-30.0 30.0)
           (-30.0 30.0)
  end
  begin
     id 15 
     name upperneck
     direction -0.0544519 0.976166 -0.210085   
     length 2.32506   
     axis 0 0 0   XYZ
    dof rx ry rz
    limits (-20.0 45.0)
           (-30.0 30.0)
           (-30.0 30.0)
  end
  begin
     id 16
     name head
     direction -0.0226035 0.997615 -0.0652205  
     length 2.3648  
     axis 0 0 0   XYZ
    dof rx ry rz
    limits (-20.0 45.0)
           (-30.0 30.0)
           (-30.0 30.0)
  end
  begin
     id 17 
     name lclavicle
     direction 0.92109 0.381297 -0.0787716  
     length 4.0487  
     axis 0 0 0   XYZ
    dof ry rz
    limits (-20.0 10.0)
           (0.0 20.0)
  end
  begin
     id 18 
     name lhumerus
     direction 1 -4.48986e-011 3.56724e-027   
     length 4.94991   
     axis 180 -30 -90   XYZ
    dof rx ry rz
    limits (-60.0 90.0)
           (-90.0 90.0)
           (-90.0 90.0)
  end
  begin
     id 19
     name lradius
     direction 1 -4.48981e-011 8.62147e-027   
     length 2.7606   
     axis 180 -30 -90   XYZ
    dof rx
    limits (-10.0 170.0)
  end
  begin
     id 20
     name lwrist
     direction 1 -4.48989e-011 1.59799e-026   
     length 1.3803   
     axis -1.17785e-014 90 90   XYZ
    dof ry
    limits (-180.0 0.0)
 end
  begin
     id 21 
     name lhand
     direction 1 -4.48896e-011 3.19599e-026   
     length 0.843936   
     axis -2.03931e-014 90 90   XYZ
    dof rx rz
    limits (-90.0 90.0)
           (-45.0 45.0)
  end
  begin
     id 22 
     name lfingers
     direction 1 -4.48887e-011 6.39197e-026   
     length 0.680403   
     axis -4.07862e-014 90 90   XYZ
    dof rx
    limits (0.0 90.0)
  end
  begin
     id 23
     name lthumb
     direction 0.707107 -6.348e-011 0.707107   
     length 0.976926   
     axis -90 45 2.85299e-015   XYZ
    dof rx rz
    limits (-45.0 45.0)
           (-45.0 45.0)
  end
  begin
     id 24 
     name rclavicle
     direction -0.951104 0.307692 -0.026953   
     length 4.21801  
     axis 0 0 0   XYZ 
    dof ry rz
    limits (-10.0 20.0)
           (-20.0 0.0)
  end
  begin
     id 25 
     name rhumerus
     direction -1 -4.4896e-011 -1.8171e-018  
     length 4.32982   
     axis 180 30 90   XYZ
    dof rx ry rz
    limits (-90.0 60.0)
           (-90.0 90.0)
           (-90.0 90.0)
  end
  begin
     id 26 
     name rradius
     direction -1 -4.48959e-011 8.25165e-027   
     length 3.20057   
     axis 180 30 90   XYZ
    dof rx
    limits (-10.0 170.0)
  end
  begin
     id 27 
     name rwrist
     direction -1 -4.48997e-011 1.59799e-026   
     length 1.60029   
     axis -1.17785e-014 -90 -90   XYZ
    dof ry
    limits (-180.0 0.0)
  end
  begin
     id 28
     name rhand
     direction -1 -4.49023e-011 3.19599e-026   
     length 0.960433   
     axis -2.03931e-014 -90 -90   XYZ
    dof rx rz
    limits (-90.0 90.0)
           (-45.0 45.0)
  end
  begin
     id 29
     name rfingers
     direction -1 -4.48802e-011 6.39197e-026   
     length 0.774326   
     axis -4.07862e-014 -90 -90   XYZ
    dof rx
    limits (0.0 90.0)
  end
  begin
     id 30
     name rthumb
     direction -0.707107 -6.34876e-011 0.707107   
     length 1.11178   
     axis -90 -45 -2.85299e-015   XYZ
    dof rx rz
    limits (-45.0 45.0)
           (-45.0 45.0)
  end
:hierarchy
  begin
    root lhipjoint rhipjoint lowerback
    lhipjoint lfemur
    lfemur ltibia
    ltibia lfoot
    lfoot ltoes
    rhipjoint rfemur
    rfemur rtibia
    rtibia rfoot
    rfoot rtoes
    lowerback upperback
    upperback thorax
    thorax lowerneck lclavicle rclavicle
    lowerneck upperneck
    upperneck head
    lclavicle lhumerus
    lhumerus lradius
    lradius lwrist
    lwrist lhand lthumb
    lhand lfingers
    rclavicle rhumerus
    rhumerus rradius
    rradius rwrist
    rwrist rhand rthumb
    rhand rfingers
end

#!OML:ASF C:\KaitlinTest1\Natural Motions\Nikki\Session 2\Nikki.ASF
:FULLY-SPECIFIED
:DEGREES
119
root -13.5093 16.6079 4.85004 -95.5849 88.9569 -106.209
lowerback -6.29203 -1.65267 1.17621
upperback -3.2154 -2.18157 -0.941205
thorax 0.132785 -1.0799 -1.76168
lowerneck -9.01673 -11.4897 -9.53475
upperneck 4.12484 38.7292 4.70661
head 165.833 64.0737 -38.8838
rclavicle 8.23714e-015 7.95139e-015
rhumerus -35.888 10.9559 -93.4063
rradius 36.5488
rwrist 5.05424
rhand -37.4806 6.93924
rfingers 7.12502
rthumb -10.5383 -22.7766
lclavicle 8.23714e-015 7.95139e-015
lhumerus -33.725 -7.45429 82.8939
lradius 35.3777
lwrist -21.9852
lhand -34.8228 2.75769
lfingers 7.12502
lthumb -7.97379 32.5873
rfemur -11.242 -16.4326 21.416
rtibia 15.0936
rfoot -11.7565 9.32766
rtoes -3.33958e-014
lfemur -16.2395 15.179 -19.7029
ltibia 19.353
lfoot -6.34522 -16.6657
ltoes -3.65764e-014
120
root -13.5233 16.6108 4.84857 -97.8867 88.9882 -108.685
lowerback -6.04949 -1.66302 1.13614
upperback -3.1813 -2.19436 -0.941087
thorax 0.034553 -1.08766 -1.73249
lowerneck -9.22019 -11.5305 -9.50514
upperneck 4.03466 38.6315 4.65741
head 165.778 64.0661 -38.9239
rclavicle -1.66855e-014 1.59028e-015
rhumerus -36.2817 12.0532 -93.261
rradius 37.3097
rwrist 4.0723
rhand -37.7922 7.0491
rfingers 7.12502
rthumb -10.8388 -22.6512
lclavicle -1.66855e-014 1.59028e-015
lhumerus -33.664 -7.63854 82.2333
lradius 35.7167
lwrist -21.5075
lhand -35.2049 2.93125
lfingers 7.12502
lthumb -8.34257 32.7465
rfemur -11.6101 -16.4223 21.4399
rtibia 15.3202
rfoot -11.7895 9.26769
rtoes -3.18055e-015
lfemur -16.4742 15.1614 -19.8369
ltibia 19.254
lfoot -6.20475 -16.6776
ltoes -2.38542e-014
121
root -13.5386 16.6142 4.84753 -101.628 89.0949 -112.623
lowerback -5.78623 -1.67497 1.01945
upperback -3.12778 -2.20572 -0.973724
thorax -0.0535161 -1.09394 -1.69359
lowerneck -9.48315 -11.6047 -9.43415
upperneck 3.89699 38.3931 4.57481
head 165.536 64.1995 -39.0919
rclavicle 9.21864e-015 -1.11319e-014
rhumerus -36.6543 12.9912 -93.0217
rradius 38.0491
rwrist 3.21225
rhand -38.0257 7.03632
rfingers 7.12502
rthumb -11.0641 -22.6521
lclavicle 9.21864e-015 -1.11319e-014
lhumerus -33.5935 -7.93285 81.5405
lradius 35.9246
lwrist -20.8289
lhand -35.7356 2.93267
lfingers 7.12502
lthumb -8.85464 32.7269
rfemur -11.9993 -16.3793 21.3809
rtibia 15.532
rfoot -11.7927 9.17593
rtoes -1.11319e-014
lfemur -16.7487 15.1005 -20.059
ltibia 19.1678
lfoot -6.05562 -16.6727
ltoes -2.70347e-014
122
root -13.5548 16.6177 4.84761 -105.624 89.155 -116.833
lowerback -5.58652 -1.68074 0.905581
upperback -3.03333 -2.21083 -0.971436
thorax -0.0627516 -1.09634 -1.62295
lowerneck -9.86178 -11.6889 -9.36822
upperneck 3.77884 38.339 4.50138
head 165.279 64.173 -39.3203
rclavicle 1.9953e-014 4.37326e-015
rhumerus -37.0008 13.9245 -92.6834
rradius 38.7299
rwrist 2.19021
rhand -38.373 7.25214
rfingers 7.12502
rthumb -11.399 -22.418
lclavicle 1.9953e-014 4.37326e-015
lhumerus -33.4384 -7.72258 80.6489
lradius 36.0063
lwrist -20.9584
lhand -36.1251 2.82894
lfingers 7.12502
lthumb -9.23051 32.6069
rfemur -12.4049 -16.2974 21.3834
rtibia 15.735
rfoot -11.8108 9.03097
rtoes 5.1684e-014
lfemur -17.051 15.0271 -20.2223
ltibia 19.0978
lfoot -5.88633 -16.661
ltoes 5.24792e-014
123
root -13.5743 16.6227 4.84788 -107.898 89.176 -119.328
lowerback -5.24116 -1.68911 0.836855
upperback -3.00204 -2.22101 -0.946749
thorax -0.219024 -1.10274 -1.54877
lowerneck -10.1747 -11.7183 -9.35367
upperneck 3.6658 38.2914 4.448
head 165.246 64.2014 -39.3941
rclavicle 7.70291e-015 2.78299e-015
rhumerus -37.3668 14.7157 -92.2646
rradius 39.2548
rwrist 1.29813
rhand -38.5858 7.37418
rfingers 7.12502
rthumb -11.6043 -22.2845
lclavicle 7.70291e-015 2.78299e-015
lhumerus -33.4727 -7.59415 79.7631
lradius 36.0685
lwrist -21.0552
lhand -36.5633 2.81821
lfingers 7.12502
lthumb -9.6533 32.577
rfemur -12.8537 -16.1705 21.4385
rtibia 15.9504
rfoot -11.7907 8.87424
rtoes 3.18055e-014
lfemur -17.402 14.9545 -20.3566
ltibia 19.0387
lfoot -5.72905 -16.6392
ltoes 4.13472e-014
124
root -13.5923 16.6273 4.8474 -107.717 89.2501 -119.419
lowerback -5.03098 -1.685 0.740108
upperback -2.90471 -2.21452 -0.946682
thorax -0.231736 -1.09957 -1.48917
lowerneck -10.5491 -11.7982 -9.27488
upperneck 3.48966 38.0259 4.34358
head 164.94 64.3658 -39.6224
rclavicle 1.16786e-015 4.77083e-015
rhumerus -37.6786 15.3476 -91.8118
rradius 39.8026
rwrist 0.583924
rhand -38.7715 7.31189
rfingers 7.12502
rthumb -11.7833 -22.3366
lclavicle 1.16786e-015 4.77083e-015
lhumerus -33.4064 -7.01859 78.6103
lradius 36.0353
lwrist -21.6592
lhand -36.837 2.69585
lfingers 7.12502
lthumb -9.91738 32.4422
rfemur -13.3599 -16.003 21.4589
rtibia 16.1997
rfoot -11.8023 8.72
rtoes -2.8625e-014
lfemur -17.8086 14.9343 -20.5507
ltibia 18.9905
lfoot -5.53885 -16.5869
ltoes -7.95139e-015
125
root -13.609 16.6313 4.84602 -107.231 89.2605 -119.172
lowerback -4.72644 -1.67745 0.730568
upperback -2.8203 -2.20753 -0.928341
thorax -0.313037 -1.09772 -1.45629
lowerneck -10.9421 -11.9049 -9.19376
upperneck 3.32318 37.7725 4.22156
head 164.454 64.5104 -39.9779
rclavicle -8.3738e-015 6.36111e-015
rhumerus -38.0057 15.9054 -91.2403
rradius 40.1376
rwrist 0.0919306
rhand -38.9884 7.53328
rfingers 7.12502
rthumb -11.9925 -22.1032
lclavicle -8.3738e-015 6.36111e-015
lhumerus -33.3959 -6.6268 77.5309
lradius 35.7954
lwrist -22.0917
lhand -37.1812 2.67123
lfingers 7.12502
lthumb -10.2494 32.4015
rfemur -13.8636 -16.0029 21.5477
rtibia 16.5063
rfoot -11.8577 8.70451
rtoes -1.12115e-013
lfemur -18.1642 14.8466 -20.6575
ltibia 18.9412
lfoot -5.38882 -16.5329
ltoes -4.45278e-014
126
root -13.6306 16.6353 4.84307 -107.209 89.4343 -119.485
lowerback -4.44841 -1.66512 0.575963
upperback -2.77397 -2.18744 -0.945805
thorax -0.414296 -1.08736 -1.37869
lowerneck -11.3301 -11.9257 -9.21207
upperneck 3.18155 37.7345 4.1533
head 164.52 64.4808 -39.9783
rclavicle 3.8266e-015 -8.74653e-015
rhumerus -38.4192 16.3351 -90.5913
rradius 40.4854
rwrist -0.017311
rhand -39.1727 7.41572
rfingers 7.12502
rthumb -12.1702 -22.2103
lclavicle 3.8266e-015 -8.74653e-015
lhumerus -33.4166 -5.91498 76.3356
lradius 35.427
lwrist -22.6682
lhand -37.6361 2.55089
lfingers 7.12502
lthumb -10.6883 32.259
rfemur -14.5418 -15.9167 21.4896
rtibia 16.8855
rfoot -11.8835 8.65287
rtoes 9.70069e-014
lfemur -18.6523 14.8387 -20.9846
ltibia 18.8882
lfoot -5.16444 -16.4926
ltoes 9.22361e-014
127
root -13.6565 16.6383 4.84235 -112.92 89.564 -125.548
lowerback -4.15217 -1.67789 0.432531
upperback -2.68042 -2.203 -0.961548
thorax -0.478726 -1.095 -1.30728
lowerneck -11.8563 -12.0029 -9.11204
upperneck 2.99489 37.5979 4.06513
head 164.296 64.5226 -40.1954
rclavicle 1.63997e-015 -7.95139e-015
rhumerus -38.6093 16.7388 -89.8795
rradius 40.508
rwrist -0.175177
rhand -39.5576 7.79593
rfingers 7.12502
rthumb -12.5413 -21.8077
lclavicle 1.63997e-015 -7.95139e-015
lhumerus -33.4102 -4.98443 74.9824
lradius 34.9726
lwrist -23.6056
lhand -37.87 2.59944
lfingers 7.12502
lthumb -10.9139 32.2958
rfemur -15.2843 -15.7758 21.4757
rtibia 17.3376
rfoot -11.9277 8.48968
rtoes -1.51076e-014
lfemur -19.171 14.7277 -21.262
ltibia 18.8291
lfoot -4.91468 -16.4276
ltoes 3.97569e-014
128
root -13.6786 16.6411 4.84034 -99.4271 89.6916 -112.395
lowerback -3.78811 -1.63461 0.359096
upperback -2.65035 -2.14621 -0.978685
thorax -0.647224 -1.06748 -1.27077
lowerneck -12.2511 -12.0751 -9.05723
upperneck 2.85792 37.488 3.98277
head 164.022 64.5793 -40.4369
rclavicle 5.46658e-015 7.55382e-015
rhumerus -39.0729 16.9418 -89.1759
rradius 40.5718
rwrist -0.0289748
rhand -40.1689 7.68362
rfingers 7.12502
rthumb -13.1306 -21.883
lclavicle 5.46658e-015 7.55382e-015
lhumerus -33.7171 -4.0984 73.6357
lradius 34.5181
lwrist -24.1544
lhand -38.2824 2.30354
lfingers 7.12502
lthumb -11.3117 31.9785
rfemur -16.0504 -15.703 21.5131
rtibia 17.8559
rfoot -12.0363 8.53175
rtoes 2.54444e-014
lfemur -19.6331 14.6314 -21.4747
ltibia 18.756
lfoot -4.68913 -16.2473
ltoes 5.08889e-014
129
root -13.7032 16.6426 4.83953 -78.632 89.7848 -91.9295
lowerback -3.43839 -1.59974 0.281414
upperback -2.54076 -2.10211 -0.991496
thorax -0.726348 -1.04616 -1.23023
lowerneck -12.7083 -12.1235 -9.06411
upperneck 2.65382 37.2947 3.88599
head 164.098 64.5895 -40.397
rclavicle 1.40143e-014 -6.36111e-015
rhumerus -39.4452 17.1322 -88.3841
rradius 40.5047
rwrist 0.0266949
rhand -40.7083 7.89798
rfingers 7.12502
rthumb -13.6505 -21.6344
lclavicle 1.40143e-014 -6.36111e-015
lhumerus -34.0133 -3.47793 72.3785
lradius 34.1804
lwrist -24.1031
lhand -38.596 2.46473
lfingers 7.12502
lthumb -11.6141 32.1229
rfemur -16.8257 -15.5952 21.5488
rtibia 18.4254
rfoot -12.1578 8.5019
rtoes 4.29375e-014
lfemur -20.0812 14.4103 -21.6444
ltibia 18.6877
lfoot -4.45928 -15.951
ltoes 7.95139e-015
